<svg width="2058" height="1833" viewBox="0 0 2058 1833" fill="none" xmlns="http://www.w3.org/2000/svg">
<path d="M132.802 1541.8H88.8467" stroke="#263238" stroke-width="1.1133" stroke-miterlimit="10"/>
<path d="M1913.24 1541.8H202.327" stroke="#263238" stroke-width="1.1133" stroke-miterlimit="10"/>
<path d="M1269.52 1725.57C1349.88 1725.57 1415.03 1707.65 1415.03 1685.54C1415.03 1663.43 1349.88 1645.51 1269.52 1645.51C1189.15 1645.51 1124 1663.43 1124 1685.54C1124 1707.65 1189.15 1725.57 1269.52 1725.57Z" fill="#263238"/>
<path d="M517.437 1776.47C365.987 1776.47 343.626 1754.58 341.423 1736.91C340.923 1733.24 341.286 1729.49 342.482 1725.97C343.679 1722.46 345.677 1719.27 348.318 1716.66C389.114 1673.85 624.213 1691.95 949.522 1717C994.914 1720.49 1041.84 1724.08 1089.96 1727.67C1418.67 1752.09 1551.01 1748.93 1578.35 1715.89C1583.91 1709.14 1585.06 1700.72 1581.99 1689.32C1568.97 1641.68 1394.87 1641.44 1328.94 1645.17C1327.43 1645.25 1325.95 1644.73 1324.82 1643.73C1323.69 1642.73 1323 1641.32 1322.9 1639.81C1322.86 1639.06 1322.96 1638.32 1323.21 1637.61C1323.45 1636.91 1323.84 1636.26 1324.34 1635.7C1324.83 1635.14 1325.44 1634.69 1326.11 1634.37C1326.79 1634.05 1327.52 1633.86 1328.27 1633.83C1353.5 1632.34 1575.19 1621.18 1592.96 1686.5C1597.03 1701.53 1595.16 1713.55 1587.12 1723.32C1556.42 1760.57 1430.78 1764.54 1089.14 1739.17C1040.98 1735.57 994.052 1731.98 948.66 1728.49C638.578 1704.55 393.614 1685.73 356.554 1724.66C355.089 1726.05 353.977 1727.77 353.31 1729.68C352.644 1731.58 352.443 1733.62 352.723 1735.62C354.112 1746.92 381.452 1772.2 601.709 1763.39C724.908 1758.61 848.683 1745.05 849.928 1744.91C851.369 1744.85 852.779 1745.34 853.873 1746.28C854.967 1747.23 855.663 1748.55 855.821 1749.98C855.979 1751.41 855.587 1752.86 854.725 1754.01C853.862 1755.17 852.592 1755.95 851.173 1756.21C849.928 1756.21 725.77 1769.81 602.187 1774.74C570.394 1775.89 542.239 1776.47 517.437 1776.47Z" fill="white" stroke="#263238" stroke-width="1.1133" stroke-miterlimit="10"/>
<path d="M1215.41 1720.68C1310.11 1720.68 1386.87 1643.92 1386.87 1549.22C1386.87 1454.52 1310.11 1377.75 1215.41 1377.75C1120.71 1377.75 1043.94 1454.52 1043.94 1549.22C1043.94 1643.92 1120.71 1720.68 1215.41 1720.68Z" fill="white"/>
<mask id="mask0_437_386" style="mask-type:luminance" maskUnits="userSpaceOnUse" x="1043" y="1377" width="344" height="344">
<path d="M1215.41 1720.68C1310.11 1720.68 1386.87 1643.92 1386.87 1549.22C1386.87 1454.52 1310.11 1377.75 1215.41 1377.75C1120.71 1377.75 1043.94 1454.52 1043.94 1549.22C1043.94 1643.92 1120.71 1720.68 1215.41 1720.68Z" fill="white"/>
</mask>
<g mask="url(#mask0_437_386)">
<path d="M1215.41 1720.68C1246.61 1720.7 1277.23 1712.21 1303.96 1696.11C1330.69 1680.01 1352.52 1656.92 1367.09 1629.33C1381.67 1601.74 1388.43 1570.69 1386.66 1539.54C1384.89 1508.39 1374.65 1478.31 1357.04 1452.54C1355.18 1527.24 1313.95 1637.51 1099.54 1675.43C1131.1 1704.55 1172.47 1720.7 1215.41 1720.68Z" fill="#D9543D"/>
<path opacity="0.3" d="M1215.41 1720.68C1246.61 1720.7 1277.23 1712.21 1303.96 1696.11C1330.69 1680.01 1352.52 1656.92 1367.09 1629.33C1381.67 1601.74 1388.43 1570.69 1386.66 1539.54C1384.89 1508.39 1374.65 1478.31 1357.04 1452.54C1355.18 1527.24 1313.95 1637.51 1099.54 1675.43C1131.1 1704.55 1172.47 1720.7 1215.41 1720.68Z" fill="white"/>
<path d="M1299.78 1616.44C1269.2 1586.7 1232.07 1564.54 1191.37 1551.76M1299.78 1616.44H1308.87C1329.05 1596.44 1346.43 1573.79 1360.54 1549.12C1280.24 1464.28 1202.15 1472.94 1202.15 1472.94C1202.15 1472.94 1280.48 1464.28 1360.78 1549.22C1365.18 1541.32 1368.87 1533.9 1371.89 1527.05C1338.47 1480.22 1280.91 1448.28 1250.03 1443.5L1242.85 1441.77M1299.78 1616.44C1229.25 1615.44 1175.62 1604.52 1135.54 1589.92C1138.13 1481.61 1176.77 1409.45 1196.97 1378.9C1203.41 1378.16 1209.89 1377.77 1216.37 1377.75C1222.26 1377.75 1228 1378.09 1233.75 1378.62M1242.85 1441.77C1231.78 1439.76 1220.45 1439.6 1209.33 1441.29M1242.85 1441.77L1263.29 1384.31C1253.63 1381.55 1243.74 1379.65 1233.75 1378.62M1233.75 1378.62C1220.48 1400.02 1186.35 1468.39 1186.35 1604.04M1338.51 1581.54C1270.23 1514.98 1194.87 1511.49 1194.87 1511.49" stroke="#263238" stroke-width="1.1133" stroke-linecap="round" stroke-linejoin="round"/>
<path d="M1135.35 1590.21C1137.94 1481.9 1176.58 1409.74 1196.78 1379.19C1180.97 1380.96 1165.49 1384.93 1150.77 1390.97C1114.48 1444.21 1093.98 1506.62 1091.63 1571C1105.69 1578.51 1120.31 1584.93 1135.35 1590.21Z" stroke="#263238" stroke-width="1.1133" stroke-linecap="round" stroke-linejoin="round"/>
<path d="M1150.77 1390.83C1121.16 1403.03 1095.55 1423.28 1076.83 1449.27C1058.12 1475.26 1047.04 1505.96 1044.85 1537.92C1058.95 1550.88 1074.68 1561.96 1091.63 1570.86C1093.98 1506.47 1114.48 1444.06 1150.77 1390.83Z" stroke="#263238" stroke-width="1.1133" stroke-linecap="round" stroke-linejoin="round"/>
<path d="M1371.65 1527.05C1375.38 1518.8 1378.58 1510.33 1381.22 1501.67C1374.07 1477.25 1361.59 1454.72 1344.69 1435.69L1331.43 1479.93L1344.45 1435.69C1333.87 1423.83 1321.71 1413.48 1308.3 1404.95L1293.7 1459.58L1308.4 1405.19C1294.38 1396.22 1279.11 1389.37 1263.1 1384.84L1242.65 1442.3C1273.97 1446.8 1322.38 1465.23 1371.65 1527.05Z" stroke="#263238" stroke-width="1.1133" stroke-linecap="round" stroke-linejoin="round"/>
<path d="M1224.89 1681.61C1244.84 1669.55 1263.87 1656.02 1281.82 1641.15C1291.64 1632.92 1309.64 1616.59 1310.22 1616.59C1309.64 1616.59 1344.02 1577.8 1355.42 1557.55C1355.42 1557.84 1360.49 1549.51 1360.2 1549.22C1359.92 1548.93 1364.32 1541.99 1364.03 1541.7C1366.83 1537.01 1369.26 1532.11 1371.31 1527.05C1375.04 1518.8 1378.24 1510.33 1380.89 1501.67C1385.46 1517.32 1387.78 1533.54 1387.78 1549.84C1387.78 1552.52 1387.78 1554.82 1387.78 1557.31C1315.39 1658.96 1259.6 1702.54 1224.51 1721.64C1221.68 1721.64 1218.81 1721.64 1215.89 1721.64C1198.33 1721.64 1180.88 1718.96 1164.13 1713.69C1184.98 1704.18 1205.27 1693.47 1224.89 1681.61ZM1224.89 1681.61H1226.13" stroke="#263238" stroke-width="1.1133" stroke-linecap="round" stroke-linejoin="round"/>
<path d="M1387.78 1557.31C1315.39 1658.96 1259.6 1702.54 1224.79 1721.21C1267.48 1719.06 1307.84 1701.08 1337.97 1670.77C1368.11 1640.46 1385.87 1600.01 1387.78 1557.31Z" stroke="#263238" stroke-width="1.1133" stroke-linecap="round" stroke-linejoin="round"/>
<path d="M1081.91 1656.9C1103.16 1683.61 1131.88 1703.38 1164.41 1713.69C1185.27 1704.18 1205.56 1693.47 1225.18 1681.61C1184.29 1689.18 1120.32 1670.41 1081.91 1656.9Z" stroke="#263238" stroke-width="1.1133" stroke-linecap="round" stroke-linejoin="round"/>
<path d="M1225.18 1681.61C1245.13 1669.55 1264.15 1656.02 1282.11 1641.15C1158.62 1653.79 1082.44 1615.53 1050.07 1593.8C1056.18 1616.82 1067.03 1638.31 1081.91 1656.9C1120.32 1670.41 1184.29 1689.18 1225.18 1681.61Z" stroke="#263238" stroke-width="1.1133" stroke-linecap="round" stroke-linejoin="round"/>
<path d="M1299.78 1616.54H1308.87C1300.78 1624.68 1291.92 1632.92 1282.11 1641.15C1158.62 1653.79 1082.44 1615.53 1050.07 1593.89C1046.3 1579.55 1044.38 1564.77 1044.38 1549.94C1044.38 1545.96 1044.57 1542.08 1044.85 1538.16C1055.29 1547.97 1076.5 1569.9 1135.35 1590.3C1175.62 1604.62 1229.25 1615.53 1299.78 1616.54ZM1299.78 1616.54C1300.45 1617.16 1301.12 1617.78 1301.74 1618.46" stroke="#263238" stroke-width="1.1133" stroke-linecap="round" stroke-linejoin="round"/>
</g>
<path d="M1215.41 1720.68C1310.11 1720.68 1386.87 1643.92 1386.87 1549.22C1386.87 1454.52 1310.11 1377.75 1215.41 1377.75C1120.71 1377.75 1043.94 1454.52 1043.94 1549.22C1043.94 1643.92 1120.71 1720.68 1215.41 1720.68Z" stroke="#263238" stroke-width="1.1133" stroke-linecap="round" stroke-linejoin="round"/>
<path d="M1531.24 1256.18C1531.24 1256.18 1519.51 1218.12 1485.32 1204.42C1461.38 1194.85 1434.23 1197.43 1409.57 1201.69C1363.7 1209.69 1323.67 1227.93 1280.29 1243.49C1280.29 1243.49 1298.87 1236.65 1375.05 1273.8C1403.11 1287.45 1435.19 1298.08 1467.27 1297.36C1492.98 1296.79 1532.53 1289.41 1531.24 1256.18Z" fill="#D9543D"/>
<path d="M1535.35 1144.28C1535.35 1144.28 1535.35 1104.4 1506.63 1081.46C1486.61 1065.47 1459.7 1059.96 1434.8 1056.95C1388.55 1051.34 1344.98 1057.23 1298.82 1059.58C1298.82 1059.58 1318.59 1058.43 1380.79 1115.98C1403.73 1137.15 1431.4 1156.59 1462.19 1165.16C1486.99 1172.05 1526.93 1176.46 1535.35 1144.28Z" fill="#D9543D"/>
<path d="M1613.93 1292.29C1613.93 1292.29 1582.85 1267.34 1582.76 1230.52C1582.76 1204.9 1595.06 1180.43 1608.13 1159.13C1632.46 1119.38 1664.16 1088.93 1694.7 1054.22C1694.7 1054.22 1681.49 1068.96 1687.91 1153.48C1690.3 1184.6 1688.29 1218.36 1675.79 1247.9C1665.98 1271.65 1644.57 1305.69 1613.93 1292.29Z" fill="#D9543D"/>
<path d="M1724.06 1353.48C1724.06 1353.48 1719.65 1313.88 1745.6 1287.74C1763.61 1269.59 1789.7 1260.97 1813.98 1255.13C1859.27 1244.21 1903.23 1245.03 1949.34 1242.01C1949.34 1242.01 1929.61 1243.11 1874.45 1307.46C1854.15 1331.4 1828.92 1353.67 1799.18 1365.78C1775.48 1375.5 1736.31 1384.46 1724.06 1353.48Z" fill="#D9543D"/>
<path d="M1717.02 1212.27C1717.02 1212.27 1677.52 1206.86 1658.55 1175.31C1645.34 1153.38 1643.38 1125.99 1643.62 1101C1644.09 1054.46 1655.68 1011.99 1664.06 966.545C1664.06 966.545 1660.28 985.985 1709.21 1055.17C1727.22 1080.7 1742.73 1110.67 1747.52 1142.46C1750.92 1167.98 1750.01 1208.16 1717.02 1212.27Z" fill="#D9543D"/>
<path d="M1830.69 1141.36C1830.69 1141.36 1859.08 1169.32 1895.66 1165.3C1921.09 1162.38 1943.98 1147.2 1963.61 1131.79C2000.19 1103.06 2026.77 1067.91 2057.65 1033.58C2057.65 1033.58 2044.58 1048.38 1959.87 1051.87C1928.7 1053.16 1895.43 1059.05 1867.51 1074.95C1845.1 1087.49 1813.83 1112.73 1830.69 1141.36Z" fill="#D9543D"/>
<path d="M1797.79 1113.73C1797.79 1113.73 1837.44 1117.71 1863.3 1091.52C1881.3 1073.27 1889.63 1047.13 1895.23 1022.76C1905.67 977.415 1904.43 933.411 1906.92 887.301C1906.92 887.301 1906.06 907.028 1842.23 962.858C1818.77 983.4 1796.5 1008.87 1784.77 1038.7C1775.24 1062.69 1766.67 1101.95 1797.79 1113.73Z" fill="#D9543D"/>
<path d="M1656.21 1499.71L1587.74 1331.21L1508.78 1136.38" stroke="#263238" stroke-width="1.1133" stroke-linecap="round" stroke-linejoin="round"/>
<path d="M1672.01 1470.74L1740.43 1236.45L1814.17 1091.66" stroke="#263238" stroke-width="1.1133" stroke-linecap="round" stroke-linejoin="round"/>
<path d="M1698.3 1378.62L1766.77 1339.11" stroke="#263238" stroke-width="1.1133" stroke-linecap="round" stroke-linejoin="round"/>
<path d="M1740.43 1236.45L1706.2 1160.08" stroke="#263238" stroke-width="1.1133" stroke-linecap="round" stroke-linejoin="round"/>
<path d="M1783.29 1160.47L1866.79 1123.21" stroke="#263238" stroke-width="1.1133" stroke-linecap="round" stroke-linejoin="round"/>
<path d="M1600.9 1362.81L1629.87 1246.99" stroke="#263238" stroke-width="1.1133" stroke-linecap="round" stroke-linejoin="round"/>
<path d="M1562.5 1274.76L1495.61 1239.09" stroke="#263238" stroke-width="1.1133" stroke-linecap="round" stroke-linejoin="round"/>
<path d="M1691.31 1583.93H1634.23C1624.9 1583.93 1615.86 1580.67 1608.68 1574.72C1601.49 1568.77 1596.61 1560.49 1594.87 1551.33L1574.57 1444.41H1750.97L1730.71 1551.33C1728.96 1560.5 1724.07 1568.77 1716.88 1574.72C1709.69 1580.67 1700.64 1583.93 1691.31 1583.93Z" fill="#263238" stroke="#263238" stroke-width="1.1133" stroke-linecap="round" stroke-linejoin="round"/>
<path d="M84.8721 932.118C84.8721 918.855 91.0009 909.087 104.791 909.087C118.581 909.087 124.949 918.663 124.949 932.118V978.659C124.949 991.923 118.82 1001.69 104.791 1001.69C90.7615 1001.69 84.8721 992.114 84.8721 978.659V932.118ZM90.8573 979.042C90.8573 988.954 94.7836 996.232 104.791 996.232C114.798 996.232 119.155 988.954 119.155 979.042V931.735C119.155 921.824 115.133 914.546 104.791 914.546C94.4484 914.546 90.8573 921.824 90.8573 931.735V979.042Z" fill="white"/>
<path d="M134.382 932.118C134.382 918.855 140.511 909.087 154.301 909.087C168.091 909.087 174.459 918.663 174.459 932.118V978.659C174.459 991.923 168.33 1001.69 154.301 1001.69C140.271 1001.69 134.382 992.114 134.382 978.659V932.118ZM140.367 979.042C140.367 988.954 144.293 996.232 154.301 996.232C164.308 996.232 168.665 988.954 168.665 979.042V931.735C168.665 921.824 164.643 914.546 154.301 914.546C143.958 914.546 140.367 921.824 140.367 931.735V979.042Z" fill="white"/>
<path d="M203.236 909.853C217.313 909.853 222.772 918.711 222.772 931.975V941.886C222.772 956.251 216.116 963.433 201.704 963.433H190.356V1000.92H184.371V909.949L203.236 909.853ZM201.704 957.974C212.238 957.974 216.787 953.186 216.787 942.269V931.591C216.787 921.728 213.387 915.312 203.236 915.312H190.356V957.974H201.704Z" fill="white"/>
<path d="M270.127 931.831V933.794H264.381V931.448C264.381 921.872 260.742 914.546 250.878 914.546C241.015 914.546 237.328 921.584 237.328 931.161C237.328 953.234 270.223 953.617 270.223 978.755C270.223 991.875 264.525 1001.5 250.591 1001.5C236.657 1001.5 230.959 991.923 230.959 978.755V973.967H236.705V979.042C236.705 988.619 240.44 995.801 250.447 995.801C260.455 995.801 264.237 988.762 264.237 979.042C264.237 957.16 231.343 956.777 231.343 931.448C231.343 917.754 237.328 908.944 250.495 908.8C263.663 908.656 270.127 918.711 270.127 931.831Z" fill="white"/>
<path d="M285.066 989.481V1000.92H279.224V989.481H285.066Z" fill="white"/>
<path d="M301.346 989.481V1000.92H295.457V989.481H301.346Z" fill="white"/>
<path d="M317.578 989.481V1000.92H311.544V989.481H317.578Z" fill="white"/>
<path d="M104.121 1042.34C118.198 1042.34 123.657 1051.15 123.657 1064.42V1074.33C123.657 1088.69 117.001 1095.92 102.589 1095.92H91.2885V1133.37H85.2554V1042.39L104.121 1042.34ZM102.589 1090.22C113.123 1090.22 117.671 1085.44 117.671 1074.47V1063.79C117.671 1053.93 114.272 1047.56 104.121 1047.56H91.2885V1090.22H102.589Z" fill="white"/>
<path d="M139.649 1113.11L135.1 1133.27H129.594L149.465 1042.29H158.323L178.625 1133.27H172.687L167.899 1113.11H139.649ZM140.559 1107.89H167.085L153.535 1049.09L140.559 1107.89Z" fill="white"/>
<path d="M226.411 1064.56V1071.31H220.569V1064.18C220.569 1054.6 216.834 1046.99 206.779 1046.99C196.724 1046.99 193.037 1054.41 193.037 1064.18V1111.53C193.037 1121.11 196.772 1128.53 206.779 1128.53C216.786 1128.53 220.569 1121.25 220.569 1111.53V1091.85H208.599V1086.39H226.411V1111.1C226.411 1124.27 220.665 1134.13 206.779 1134.13C192.893 1134.13 187.147 1124.27 187.147 1111.1V1064.56C187.147 1051.44 192.845 1041.53 206.779 1041.53C220.713 1041.53 226.411 1051.44 226.411 1064.56Z" fill="white"/>
<path d="M267.254 1084.38V1089.84H242.404V1127.81H272.33V1133.27H236.418V1042.29H272.33V1047.75H242.404V1084.38H267.254Z" fill="white"/>
<path d="M307.714 1133.37H302.256V1042.39H310.061L337.353 1119V1042.39H342.812V1133.37H336.204L307.475 1051.97L307.714 1133.37Z" fill="white"/>
<path d="M352.723 1064.56C352.723 1051.3 358.804 1041.53 372.594 1041.53C386.384 1041.53 392.752 1051.1 392.752 1064.56V1111.1C392.752 1124.36 386.671 1134.13 372.594 1134.13C358.517 1134.13 352.723 1124.56 352.723 1111.1V1064.56ZM358.708 1111.53C358.708 1121.39 362.587 1128.67 372.594 1128.67C382.601 1128.67 386.959 1121.39 386.959 1111.53V1064.18C386.959 1054.26 382.937 1046.99 372.594 1046.99C362.252 1046.99 358.708 1054.26 358.708 1064.18V1111.53Z" fill="white"/>
<path d="M417.986 1133.37V1047.8H399.551V1042.34H442.645V1047.8H424.019V1133.37H417.986Z" fill="white"/>
<path d="M499.672 1086.68V1092.14H476.162V1133.37H470.177V1042.39H504.747V1047.85H476.018V1086.73L499.672 1086.68Z" fill="white"/>
<path d="M513.462 1064.56C513.462 1051.3 519.591 1041.53 533.381 1041.53C547.171 1041.53 553.539 1051.1 553.539 1064.56V1111.1C553.539 1124.36 547.41 1134.13 533.381 1134.13C519.351 1134.13 513.462 1124.56 513.462 1111.1V1064.56ZM519.447 1111.53C519.447 1121.39 523.373 1128.67 533.381 1128.67C543.388 1128.67 547.745 1121.39 547.745 1111.53V1064.18C547.745 1054.26 543.723 1046.99 533.381 1046.99C523.038 1046.99 519.447 1054.26 519.447 1064.18V1111.53Z" fill="white"/>
<path d="M569.149 1111.39C569.149 1120.96 572.788 1128.67 582.795 1128.67C592.802 1128.67 596.441 1121.16 596.441 1111.39V1042.34H602.043V1111.1C602.043 1124.12 596.585 1134.13 582.891 1134.13C569.197 1134.13 563.355 1124.12 563.355 1111.1V1042.34H569.34L569.149 1111.39Z" fill="white"/>
<path d="M617.987 1133.37H612.529V1042.39H620.334L647.626 1119V1042.39H653.085V1133.37H646.477L617.987 1051.97V1133.37Z" fill="white"/>
<path d="M683.203 1042.34C697.28 1042.34 703.361 1051.54 703.361 1064.94V1110.72C703.361 1124.12 697.28 1133.37 683.203 1133.37H663.188V1042.39L683.203 1042.34ZM683.203 1127.91C693.354 1127.91 697.568 1121.01 697.568 1111V1064.7C697.568 1054.7 693.306 1047.8 683.203 1047.8H669.269V1127.91H683.203Z" fill="white"/>
<path d="M910.785 1358.65C804.201 1358.65 740.135 1264.08 717.391 1180.91L716.625 1177.99C715.413 1173.96 715.027 1169.72 715.49 1165.54C715.953 1161.35 717.256 1157.3 719.319 1153.63C721.383 1149.96 724.166 1146.74 727.502 1144.17C730.838 1141.6 734.658 1139.73 738.733 1138.67C742.808 1137.61 747.056 1137.39 751.221 1138.01C755.386 1138.63 759.383 1140.08 762.974 1142.28C766.565 1144.48 769.675 1147.38 772.118 1150.81C774.562 1154.24 776.289 1158.13 777.195 1162.24L777.77 1164.39C795.055 1227.69 842.123 1300.04 917.632 1295.88C931.831 1295.38 945.768 1291.91 958.537 1285.68C971.307 1279.46 982.624 1270.61 991.753 1259.73C1033.17 1212.23 1051.7 1108.95 1047.58 1056.85C1047.19 1053.51 1047.48 1050.12 1048.43 1046.89C1049.38 1043.66 1050.97 1040.66 1053.11 1038.06C1055.24 1035.46 1057.88 1033.31 1060.86 1031.75C1063.85 1030.2 1067.11 1029.25 1070.47 1028.99C1073.82 1028.72 1077.2 1029.13 1080.39 1030.2C1083.58 1031.26 1086.53 1032.96 1089.05 1035.19C1091.57 1037.42 1093.62 1040.14 1095.06 1043.18C1096.51 1046.21 1097.33 1049.51 1097.48 1052.88C1102.26 1110.86 1095.94 1235.5 1038.92 1300.86C1024.32 1318.04 1006.32 1332.02 986.06 1341.91C965.796 1351.8 943.705 1357.38 921.176 1358.31C917.68 1358.55 914.185 1358.65 910.785 1358.65Z" fill="white"/>
<mask id="mask1_437_386" style="mask-type:luminance" maskUnits="userSpaceOnUse" x="715" y="1028" width="384" height="331">
<path d="M910.786 1358.65C804.201 1358.65 740.135 1264.08 717.391 1180.91L716.625 1177.99C715.414 1173.96 715.028 1169.72 715.491 1165.54C715.954 1161.35 717.256 1157.3 719.32 1153.63C721.384 1149.96 724.167 1146.74 727.502 1144.17C730.838 1141.6 734.658 1139.73 738.733 1138.67C742.809 1137.61 747.056 1137.39 751.221 1138.01C755.387 1138.63 759.384 1140.08 762.975 1142.28C766.565 1144.48 769.675 1147.38 772.119 1150.81C774.562 1154.24 776.289 1158.13 777.196 1162.24L777.77 1164.39C795.056 1227.69 842.123 1300.04 917.633 1295.88C931.832 1295.38 945.768 1291.91 958.538 1285.68C971.307 1279.46 982.624 1270.61 991.754 1259.73C1033.17 1212.23 1051.7 1108.95 1047.58 1056.85C1047.19 1053.51 1047.48 1050.12 1048.43 1046.89C1049.38 1043.66 1050.97 1040.66 1053.11 1038.06C1055.24 1035.46 1057.88 1033.31 1060.86 1031.75C1063.85 1030.2 1067.11 1029.25 1070.47 1028.99C1073.82 1028.72 1077.2 1029.13 1080.39 1030.2C1083.58 1031.26 1086.53 1032.96 1089.05 1035.19C1091.57 1037.42 1093.62 1040.14 1095.06 1043.18C1096.51 1046.21 1097.33 1049.51 1097.48 1052.88C1102.27 1110.86 1095.94 1235.5 1038.92 1300.86C1024.32 1318.04 1006.32 1332.02 986.061 1341.91C965.797 1351.8 943.705 1357.38 921.176 1358.31C917.681 1358.55 914.185 1358.65 910.786 1358.65Z" fill="white"/>
</mask>
<g mask="url(#mask1_437_386)">
<path d="M1070.52 1029.89C1063.9 1030.43 1057.77 1033.57 1053.47 1038.63C1049.17 1043.68 1047.05 1050.24 1047.58 1056.85C1049.6 1082.28 1046.2 1119.86 1037.39 1157.4C1049.97 1156.87 1062.55 1158.49 1074.59 1162.19C1071.74 1198.21 1059.09 1232.77 1038.01 1262.12C991.514 1326.71 921.799 1347.35 867.549 1339.59C843.272 1336.14 815.453 1323.41 792.039 1310.34C823.809 1341.32 866.41 1358.69 910.786 1358.74C914.185 1358.74 917.681 1358.74 921.176 1358.46C943.705 1357.53 965.797 1351.94 986.061 1342.05C1006.32 1332.16 1024.32 1318.19 1038.92 1301C1095.94 1235.64 1102.07 1111 1097.48 1053.02C1097.24 1049.73 1096.35 1046.51 1094.87 1043.56C1093.38 1040.61 1091.33 1037.99 1088.82 1035.83C1086.31 1033.68 1083.41 1032.05 1080.26 1031.03C1077.12 1030.01 1073.81 1029.63 1070.52 1029.89Z" fill="#D9543D"/>
<path opacity="0.5" d="M1070.52 1029.89C1063.9 1030.43 1057.77 1033.57 1053.47 1038.63C1049.17 1043.68 1047.05 1050.24 1047.58 1056.85C1049.6 1082.28 1046.2 1119.86 1037.39 1157.4C1049.97 1156.87 1062.55 1158.49 1074.59 1162.19C1071.74 1198.21 1059.09 1232.77 1038.01 1262.12C991.514 1326.71 921.799 1347.35 867.549 1339.59C843.272 1336.14 815.453 1323.41 792.039 1310.34C823.809 1341.32 866.41 1358.69 910.786 1358.74C914.185 1358.74 917.681 1358.74 921.176 1358.46C943.705 1357.53 965.797 1351.94 986.061 1342.05C1006.32 1332.16 1024.32 1318.19 1038.92 1301C1095.94 1235.64 1102.07 1111 1097.48 1053.02C1097.24 1049.73 1096.35 1046.51 1094.87 1043.56C1093.38 1040.61 1091.33 1037.99 1088.82 1035.83C1086.31 1033.68 1083.41 1032.05 1080.26 1031.03C1077.12 1030.01 1073.81 1029.63 1070.52 1029.89Z" fill="white"/>
</g>
<path d="M910.785 1358.65C804.201 1358.65 740.135 1264.08 717.391 1180.91L716.625 1177.99C715.413 1173.96 715.027 1169.72 715.49 1165.54C715.953 1161.35 717.256 1157.3 719.319 1153.63C721.383 1149.96 724.166 1146.74 727.502 1144.17C730.838 1141.6 734.658 1139.73 738.733 1138.67C742.808 1137.61 747.056 1137.39 751.221 1138.01C755.386 1138.63 759.383 1140.08 762.974 1142.28C766.565 1144.48 769.675 1147.38 772.118 1150.81C774.562 1154.24 776.289 1158.13 777.195 1162.24L777.77 1164.39C795.055 1227.69 842.123 1300.04 917.632 1295.88C931.831 1295.38 945.768 1291.91 958.537 1285.68C971.307 1279.46 982.624 1270.61 991.753 1259.73C1033.17 1212.23 1051.7 1108.95 1047.58 1056.85C1047.19 1053.51 1047.48 1050.12 1048.43 1046.89C1049.38 1043.66 1050.97 1040.66 1053.11 1038.06C1055.24 1035.46 1057.88 1033.31 1060.86 1031.75C1063.85 1030.2 1067.11 1029.25 1070.47 1028.99C1073.82 1028.72 1077.2 1029.13 1080.39 1030.2C1083.58 1031.26 1086.53 1032.96 1089.05 1035.19C1091.57 1037.42 1093.62 1040.14 1095.06 1043.18C1096.51 1046.21 1097.33 1049.51 1097.48 1052.88C1102.26 1110.86 1095.94 1235.5 1038.92 1300.86C1024.32 1318.04 1006.32 1332.02 986.06 1341.91C965.796 1351.8 943.705 1357.38 921.176 1358.31C917.68 1358.55 914.185 1358.65 910.785 1358.65Z" stroke="#D9543D" stroke-width="1.1133" stroke-linecap="round" stroke-linejoin="round"/>
<path d="M849.305 1293.87C851.843 1282.13 823.784 1300.47 800.274 1317.57C808.971 1324.92 818.332 1331.44 828.237 1337.05C836.617 1323.41 846.863 1305.17 849.305 1293.87Z" fill="#D9543D" stroke="#D9543D" stroke-width="1.1133" stroke-linecap="round" stroke-linejoin="round"/>
<path d="M910.786 1358.65C914.185 1358.65 917.681 1358.65 921.176 1358.36C931.349 1357.79 941.456 1356.37 951.389 1354.1C938.174 1336.86 919.979 1314.07 914.76 1312.35C908.775 1310.34 897.235 1339.69 890.819 1357.5C897.446 1358.27 904.113 1358.66 910.786 1358.65Z" fill="#D9543D" stroke="#D9543D" stroke-width="1.1133" stroke-linecap="round" stroke-linejoin="round"/>
<path d="M777.77 1164.39L777.195 1162.24C776.289 1158.13 774.562 1154.24 772.118 1150.81C769.675 1147.38 766.565 1144.48 762.974 1142.28C759.383 1140.08 755.386 1138.62 751.221 1138.01C747.056 1137.39 742.808 1137.61 738.733 1138.67C734.658 1139.73 730.838 1141.6 727.502 1144.17C724.166 1146.74 721.383 1149.96 719.319 1153.63C717.256 1157.3 715.953 1161.35 715.49 1165.54C715.027 1169.72 715.413 1173.96 716.625 1177.99L717.391 1180.91C725.375 1210.12 737.638 1237.99 753.781 1263.6L810.808 1236.45C795.854 1214.44 784.687 1190.09 777.77 1164.39Z" fill="#D9543D" stroke="#D9543D" stroke-width="1.1133" stroke-linecap="round" stroke-linejoin="round"/>
<path d="M1038.92 1300.86C1043.3 1295.78 1047.36 1290.44 1051.08 1284.86C1032.98 1278.69 1005.88 1270.16 995.824 1271.07C983.901 1272.17 1000.09 1310.48 1008.42 1328.53C1019.63 1320.53 1029.87 1311.24 1038.92 1300.86Z" fill="#D9543D" stroke="#D9543D" stroke-width="1.1133" stroke-linecap="round" stroke-linejoin="round"/>
<path d="M1039.92 1198.53C1038.01 1202.36 1061.42 1219.41 1077.22 1230.37C1082.23 1215.46 1086.27 1200.23 1089.29 1184.79C1070.14 1188.62 1041.79 1194.8 1039.92 1198.53Z" fill="#D9543D" stroke="#D9543D" stroke-width="1.1133" stroke-linecap="round" stroke-linejoin="round"/>
<path d="M1097.05 1127.72C1098.1 1114.07 1098.63 1101.05 1098.67 1089.07C1082.2 1098.12 1062.67 1110.67 1062.67 1118.9C1062.67 1127.14 1080.96 1128.15 1097.05 1127.72Z" fill="#D9543D" stroke="#D9543D" stroke-width="1.1133" stroke-linecap="round" stroke-linejoin="round"/>
<path d="M839.25 757.254C839.25 757.254 792.757 891.897 817.799 996.663C825.216 1027.32 839.615 1055.85 859.872 1080.03C880.129 1104.2 905.698 1123.38 934.583 1136.05C934.583 1136.05 866.639 1159.99 881.913 1196.81C897.187 1233.63 955.747 1209.93 974.851 1198.01C993.956 1186.08 1017.94 1150.36 1021.3 1126.52C1023.43 1114.34 1024.23 1101.96 1023.69 1089.6C1023.69 1089.6 1101.12 1081.27 1153.55 1038.37C1153.55 1038.37 1200.04 1075.28 1233.41 1068.15C1266.79 1061.02 1314.43 1001.4 1309.64 947.823C1304.85 894.244 1273.97 894.292 1255.1 902.431C1245.31 906.134 1236.38 911.805 1228.86 919.094C1228.86 919.094 1256.25 885.577 1228.86 839.275C1220.78 825.694 1209.71 814.13 1196.5 805.461C1183.28 796.792 1168.27 791.245 1152.59 789.239C1152.59 789.239 1138.22 712.963 1095.42 684.378C1052.61 655.793 900.012 626.201 839.25 757.254Z" fill="white"/>
<mask id="mask2_437_386" style="mask-type:luminance" maskUnits="userSpaceOnUse" x="810" y="659" width="500" height="558">
<path d="M839.25 757.254C839.25 757.254 792.757 891.897 817.799 996.663C825.216 1027.32 839.615 1055.85 859.872 1080.03C880.129 1104.2 905.698 1123.38 934.583 1136.05C934.583 1136.05 866.639 1159.99 881.913 1196.81C897.187 1233.63 955.747 1209.93 974.851 1198.01C993.956 1186.08 1017.94 1150.36 1021.3 1126.52C1023.43 1114.34 1024.23 1101.96 1023.69 1089.6C1023.69 1089.6 1101.12 1081.27 1153.55 1038.37C1153.55 1038.37 1200.04 1075.28 1233.41 1068.15C1266.79 1061.02 1314.43 1001.4 1309.64 947.823C1304.85 894.244 1273.97 894.292 1255.1 902.431C1245.31 906.134 1236.38 911.805 1228.86 919.094C1228.86 919.094 1256.25 885.577 1228.86 839.275C1220.78 825.694 1209.71 814.13 1196.5 805.461C1183.28 796.792 1168.27 791.245 1152.59 789.239C1152.59 789.239 1138.22 712.963 1095.42 684.378C1052.61 655.793 900.012 626.201 839.25 757.254Z" fill="white"/>
</mask>
<g mask="url(#mask2_437_386)">
<path d="M1193.24 803.556C1171.14 840.428 1140.55 871.49 1104.02 894.159C1067.49 916.828 1026.08 930.449 983.231 933.89C888.425 942.221 835.276 923.547 810.856 910.571C813.819 858.476 823.475 806.979 839.586 757.35C900.347 626.297 1052.85 656.08 1095.75 684.665C1138.66 713.251 1152.92 789.526 1152.92 789.526C1167.2 791.318 1180.94 796.098 1193.24 803.556ZM1255.1 902.431C1245.31 906.134 1236.38 911.805 1228.86 919.094C1234.66 911.1 1238.49 901.845 1240.02 892.089C1175.62 924.17 1180.65 992.641 1172.65 992.641C1162.79 992.641 1157.9 958.214 1157.9 958.214C1157.9 958.214 1145.6 1007.39 1071.72 1041.86C997.835 1076.34 914.281 1049.24 914.281 1049.24C914.281 1049.24 931.518 1088.6 887.228 1083.66C874.798 1082.48 862.88 1078.12 852.609 1071.02C873.848 1099.34 902.056 1121.67 934.487 1135.86C934.487 1135.86 866.543 1159.8 881.817 1196.62C897.092 1233.44 955.699 1209.74 974.756 1197.81C993.813 1185.89 1017.85 1150.17 1021.2 1126.33C1023.33 1114.14 1024.13 1101.77 1023.6 1089.41C1023.6 1089.41 1101.02 1081.08 1153.45 1038.18C1153.45 1038.18 1199.94 1075.09 1233.32 1067.96C1266.69 1060.82 1314.33 1001.21 1309.55 947.632C1304.76 894.052 1273.97 894.292 1255.1 902.431Z" fill="#D9543D"/>
<path opacity="0.5" d="M1193.24 803.556C1171.14 840.428 1140.55 871.49 1104.02 894.159C1067.49 916.828 1026.08 930.449 983.231 933.89C888.425 942.221 835.276 923.547 810.856 910.571C813.819 858.476 823.475 806.979 839.586 757.35C900.347 626.297 1052.85 656.08 1095.75 684.665C1138.66 713.251 1152.92 789.526 1152.92 789.526C1167.2 791.318 1180.94 796.098 1193.24 803.556ZM1255.1 902.431C1245.31 906.134 1236.38 911.805 1228.86 919.094C1234.66 911.1 1238.49 901.845 1240.02 892.089C1175.62 924.17 1180.65 992.641 1172.65 992.641C1162.79 992.641 1157.9 958.214 1157.9 958.214C1157.9 958.214 1145.6 1007.39 1071.72 1041.86C997.835 1076.34 914.281 1049.24 914.281 1049.24C914.281 1049.24 931.518 1088.6 887.228 1083.66C874.798 1082.48 862.88 1078.12 852.609 1071.02C873.848 1099.34 902.056 1121.67 934.487 1135.86C934.487 1135.86 866.543 1159.8 881.817 1196.62C897.092 1233.44 955.699 1209.74 974.756 1197.81C993.813 1185.89 1017.85 1150.17 1021.2 1126.33C1023.33 1114.14 1024.13 1101.77 1023.6 1089.41C1023.6 1089.41 1101.02 1081.08 1153.45 1038.18C1153.45 1038.18 1199.94 1075.09 1233.32 1067.96C1266.69 1060.82 1314.33 1001.21 1309.55 947.632C1304.76 894.052 1273.97 894.292 1255.1 902.431Z" fill="white"/>
<path d="M1023.93 1089.7C998.234 1090.38 972.722 1085.16 949.356 1074.45C925.989 1063.73 905.391 1047.8 889.144 1027.88" stroke="#D9543D" stroke-width="1.1133" stroke-linecap="round" stroke-linejoin="round"/>
</g>
<path d="M839.25 757.254C839.25 757.254 792.757 891.897 817.799 996.663C825.216 1027.32 839.615 1055.85 859.872 1080.03C880.129 1104.2 905.698 1123.38 934.583 1136.05C934.583 1136.05 866.639 1159.99 881.913 1196.81C897.187 1233.63 955.747 1209.93 974.851 1198.01C993.956 1186.08 1017.94 1150.36 1021.3 1126.52C1023.43 1114.34 1024.23 1101.96 1023.69 1089.6C1023.69 1089.6 1101.12 1081.27 1153.55 1038.37C1153.55 1038.37 1200.04 1075.28 1233.41 1068.15C1266.79 1061.02 1314.43 1001.4 1309.64 947.823C1304.85 894.244 1273.97 894.292 1255.1 902.431C1245.31 906.134 1236.38 911.805 1228.86 919.094C1228.86 919.094 1256.25 885.577 1228.86 839.275C1220.78 825.694 1209.71 814.13 1196.5 805.461C1183.28 796.792 1168.27 791.245 1152.59 789.239C1152.59 789.239 1138.22 712.963 1095.42 684.378C1052.61 655.793 900.012 626.201 839.25 757.254Z" stroke="#D9543D" stroke-width="1.1133" stroke-linecap="round" stroke-linejoin="round"/>
<path d="M1228.86 919.286C1228.86 919.286 1203.87 935.997 1191.95 987.23" stroke="#D9543D" stroke-width="1.1133" stroke-linecap="round" stroke-linejoin="round"/>
<path d="M1274.78 941.216C1271.86 949.93 1263.87 955.149 1256.97 952.803C1250.08 950.457 1246.92 941.503 1249.84 932.788C1252.76 924.074 1260.75 918.855 1267.65 921.201C1274.54 923.547 1277.75 932.501 1274.78 941.216Z" fill="white" stroke="#D9543D" stroke-width="1.1133" stroke-linecap="round" stroke-linejoin="round"/>
<path d="M1299.44 956.729C1296.52 965.444 1288.52 970.663 1281.63 968.317C1274.73 965.971 1271.53 957.017 1274.5 948.302C1277.46 939.588 1285.41 934.369 1292.31 936.715C1299.2 939.061 1302.41 948.015 1299.44 956.729Z" fill="white" stroke="#D9543D" stroke-width="1.1133" stroke-linecap="round" stroke-linejoin="round"/>
<path d="M1304.71 979.952C1303.75 981.555 1302.36 982.854 1300.7 983.698C1299.03 984.541 1297.16 984.896 1295.31 984.719C1293.45 984.543 1291.68 983.843 1290.2 982.701C1288.73 981.559 1287.6 980.022 1286.97 978.268C1286.33 976.514 1286.2 974.615 1286.6 972.792C1287 970.969 1287.91 969.297 1289.22 967.969C1290.53 966.641 1292.19 965.712 1294.01 965.291C1295.83 964.869 1297.73 964.972 1299.49 965.588C1302.03 966.859 1303.99 969.058 1304.96 971.73C1305.93 974.402 1305.84 977.345 1304.71 979.952Z" fill="white" stroke="#D9543D" stroke-width="1.1133" stroke-linecap="round" stroke-linejoin="round"/>
<path d="M1273.25 1011.84C1264.63 1027.4 1247.39 1034.3 1234.71 1027.26C1222.02 1020.22 1218.76 1001.98 1227.38 986.416C1236 970.855 1253.24 963.96 1265.92 970.998C1278.61 978.037 1281.87 996.28 1273.25 1011.84Z" fill="white" stroke="#D9543D" stroke-width="1.1133" stroke-linecap="round" stroke-linejoin="round"/>
<path d="M934.583 1136.14C950.634 1143.61 968.88 1144.89 985.817 1139.73" stroke="#D9543D" stroke-width="1.1133" stroke-linecap="round" stroke-linejoin="round"/>
<path d="M882.152 1196.9C882.152 1196.9 886.941 1176.65 916.675 1162.38" stroke="#D9543D" stroke-width="1.1133" stroke-linecap="round" stroke-linejoin="round"/>
<path d="M911.935 1214.81C911.935 1214.81 923.857 1186.08 944.111 1173.11" stroke="#D9543D" stroke-width="1.1133" stroke-linecap="round" stroke-linejoin="round"/>
<path d="M442.071 885.194C437.006 881.152 432.968 875.97 430.289 870.07C427.609 864.17 426.363 857.719 426.653 851.246V737.718H133.808C126.655 737.986 119.528 736.705 112.916 733.961C106.304 731.217 100.364 727.076 95.5026 721.821C85.9242 711.689 80.6689 698.224 80.8508 684.282C80.812 672.953 84.1456 661.869 90.4271 652.441L370.918 211.641C391.986 179.114 419.981 162.85 454.903 162.85C473.678 162.212 492.01 168.636 506.28 180.853C519.974 192.824 526.822 210.62 526.822 234.241V662.735H601.326C606.471 662.425 611.623 663.251 616.414 665.154C621.205 667.058 625.518 669.992 629.049 673.748C635.349 681.132 638.81 690.52 638.81 700.227C638.81 709.933 635.349 719.321 629.049 726.705C625.518 730.462 621.205 733.396 616.414 735.299C611.623 737.202 606.471 738.028 601.326 737.718H526.295V851.246C526.605 857.67 525.422 864.08 522.839 869.97C520.255 875.86 516.341 881.071 511.404 885.194C501.765 893.275 489.553 897.64 476.977 897.5C464.261 897.6 451.912 893.246 442.071 885.194ZM426.461 662.735V268.19L180.876 662.735H426.461Z" fill="white"/>
<path d="M848.443 887.492C819.742 874.967 794.325 855.974 774.179 831.997C753.944 806.666 738.144 778.092 727.446 747.486C715.322 714.423 706.797 680.149 702.021 645.259C697.037 607.271 694.638 568.99 694.839 530.678C694.839 278.277 781.026 152.076 953.4 152.076C1125.77 152.076 1211.75 278.277 1211.34 530.678C1211.51 568.806 1209.19 606.905 1204.4 644.732C1199.78 679.628 1191.33 713.91 1179.21 746.959C1168.51 777.565 1152.71 806.139 1132.48 831.471C1112.31 855.479 1086.9 874.545 1058.21 887.205C1025.23 901.787 989.456 908.978 953.4 908.273C917.325 908.997 881.521 901.908 848.443 887.492ZM1004.35 815.047C1018.77 808.895 1031.86 800 1042.89 788.856C1054.06 776.963 1063.24 763.35 1070.09 748.54C1077.64 732.848 1083.75 716.5 1088.33 699.7C1093.16 681.395 1096.68 662.77 1098.87 643.966C1101.45 623.217 1103.17 604.208 1104.04 586.939C1104.9 569.669 1105.31 550.916 1105.28 530.678C1105.28 509.45 1104.87 489.85 1104.04 471.879C1103.21 453.907 1101.4 434.627 1098.63 414.038C1096.24 395.246 1092.64 376.629 1087.85 358.303C1083.32 341.671 1077.21 325.51 1069.61 310.038C1062.71 295.462 1053.51 282.091 1042.36 270.44C1031.4 259.52 1018.38 250.879 1004.06 245.015C971.321 232.375 935.049 232.375 902.31 245.015C888.095 250.809 875.172 259.37 864.292 270.201C853.226 281.801 844.049 295.066 837.095 309.512C829.425 324.844 823.391 340.941 819.092 357.537C814.418 375.973 810.899 394.684 808.558 413.559C805.781 434.435 803.977 453.875 803.147 471.879C802.317 489.882 801.886 509.482 801.854 530.678C801.854 550.884 802.285 569.717 803.147 587.178C804.009 604.639 805.717 623.792 808.271 644.636C810.48 663.437 813.999 682.06 818.805 700.371C823.325 717.165 829.367 733.513 836.856 749.21C843.63 763.931 852.732 777.463 863.814 789.287C874.762 800.359 887.776 809.176 902.119 815.239C934.889 828.58 971.577 828.58 1004.35 815.239V815.047Z" fill="white"/>
<path d="M1655.01 885.194C1649.95 881.152 1645.91 875.97 1643.23 870.07C1640.55 864.17 1639.3 857.719 1639.59 851.246V737.718H1346.75C1339.6 737.986 1332.47 736.705 1325.86 733.961C1319.24 731.217 1313.3 727.076 1308.44 721.821C1298.86 711.689 1293.61 698.224 1293.79 684.282C1293.75 672.953 1297.09 661.869 1303.37 652.441L1583.86 211.641C1604.74 179.114 1632.65 162.85 1667.6 162.85C1686.48 162.139 1704.92 168.568 1719.27 180.853C1732.96 192.824 1739.81 210.62 1739.81 234.241V662.735H1814.31C1819.46 662.425 1824.61 663.251 1829.4 665.154C1834.19 667.058 1838.51 669.992 1842.04 673.748C1848.34 681.132 1851.8 690.52 1851.8 700.227C1851.8 709.933 1848.34 719.321 1842.04 726.705C1838.51 730.462 1834.19 733.396 1829.4 735.299C1824.61 737.202 1819.46 738.028 1814.31 737.718H1739.24V851.246C1739.55 857.67 1738.36 864.08 1735.78 869.97C1733.2 875.86 1729.28 881.071 1724.34 885.194C1714.71 893.275 1702.49 897.64 1689.92 897.5C1677.2 897.6 1664.85 893.246 1655.01 885.194ZM1639.59 662.735V268.19L1394.01 662.735H1639.59Z" fill="white"/>
<path d="M742.72 689.358C742.72 689.358 692.684 759.648 685.55 831.136C678.415 902.623 686.747 950.265 708.198 968.173C729.649 986.081 751.052 978.899 762.974 962.188C774.897 945.477 755.84 887.109 755.84 887.109C755.84 887.109 776.094 831.135 807.074 791.825C838.053 752.514 843.99 746.528 843.99 746.528C843.99 746.528 790.363 685.766 742.72 689.358Z" fill="white"/>
<mask id="mask3_437_386" style="mask-type:luminance" maskUnits="userSpaceOnUse" x="683" y="689" width="161" height="290">
<path d="M742.72 689.358C742.72 689.358 692.684 759.648 685.55 831.136C678.415 902.623 686.747 950.265 708.198 968.173C729.649 986.081 751.052 978.899 762.974 962.188C774.897 945.477 755.84 887.109 755.84 887.109C755.84 887.109 776.094 831.135 807.074 791.825C838.053 752.514 843.99 746.528 843.99 746.528C843.99 746.528 790.363 685.766 742.72 689.358Z" fill="white"/>
</mask>
<g mask="url(#mask3_437_386)">
<path d="M742.721 689.358C731.803 705.49 722.119 722.425 713.752 740.017C737.693 749.593 774.802 769.225 798.36 803.987C801.232 799.821 804.201 795.703 807.266 791.825C838.245 752.514 844.182 746.529 844.182 746.529C844.182 746.529 790.363 685.767 742.721 689.358Z" fill="#D9543D"/>
<path opacity="0.5" d="M742.721 689.358C731.803 705.49 722.119 722.425 713.752 740.017C737.693 749.593 774.802 769.225 798.36 803.987C801.232 799.821 804.201 795.703 807.266 791.825C838.245 752.514 844.182 746.529 844.182 746.529C844.182 746.529 790.363 685.767 742.721 689.358Z" fill="white"/>
</g>
<path d="M742.72 689.358C742.72 689.358 692.684 759.648 685.55 831.136C678.415 902.623 686.747 950.265 708.198 968.173C729.649 986.081 751.052 978.899 762.974 962.188C774.897 945.477 755.84 887.109 755.84 887.109C755.84 887.109 776.094 831.135 807.074 791.825C838.053 752.514 843.99 746.528 843.99 746.528C843.99 746.528 790.363 685.766 742.72 689.358Z" stroke="#D9543D" stroke-width="1.1133" stroke-linecap="round" stroke-linejoin="round"/>
<path d="M708.198 968.173C702.347 952.552 699.504 935.964 699.818 919.286" stroke="#D9543D" stroke-width="1.1133" stroke-linecap="round" stroke-linejoin="round"/>
<path d="M740.326 975.308C740.326 975.308 728.451 955.054 727.254 920.483" stroke="#D9543D" stroke-width="1.1133" stroke-linecap="round" stroke-linejoin="round"/>
<path d="M758.234 816.819C758.234 804.274 734.293 779.758 701.015 768.937C696.542 780.602 692.847 792.551 689.955 804.705C702.884 806.917 715.439 810.931 727.255 816.627C745.114 826.347 758.234 831.135 758.234 816.819Z" fill="#D9543D" stroke="#D9543D" stroke-width="1.1133" stroke-linecap="round" stroke-linejoin="round"/>
<path d="M739.8 693.619C732.081 705.385 724.985 717.548 718.54 730.057C728.616 732.722 738.282 736.749 747.269 742.028C784.186 763.431 791.32 765.968 779.446 734.845C772.263 715.31 755.122 702.046 739.8 693.619Z" fill="#D9543D" stroke="#D9543D" stroke-width="1.1133" stroke-linecap="round" stroke-linejoin="round"/>
<path d="M1134.63 654.643C1134.63 654.643 1191.33 719.667 1205.45 790.149C1219.58 860.631 1215.98 908.848 1196.35 928.719C1176.72 948.589 1154.74 943.61 1141.24 928.144C1127.74 912.678 1141.24 852.778 1141.24 852.778C1141.24 852.778 1115.58 799.007 1080.91 762.904C1046.24 726.801 1039.68 721.486 1039.68 721.486C1039.68 721.486 1086.85 655.745 1134.63 654.643Z" fill="white"/>
<mask id="mask4_437_386" style="mask-type:luminance" maskUnits="userSpaceOnUse" x="1039" y="654" width="176" height="288">
<path d="M1134.63 654.643C1134.63 654.643 1191.33 719.667 1205.45 790.149C1219.58 860.631 1215.98 908.848 1196.35 928.719C1176.72 948.589 1154.74 943.61 1141.24 928.144C1127.74 912.678 1141.24 852.778 1141.24 852.778C1141.24 852.778 1115.58 799.007 1080.91 762.904C1046.24 726.801 1039.68 721.486 1039.68 721.486C1039.68 721.486 1086.85 655.745 1134.63 654.643Z" fill="white"/>
</mask>
<g mask="url(#mask4_437_386)">
<path d="M1134.63 654.643C1086.75 655.745 1039.44 721.678 1039.44 721.678C1039.44 721.678 1045.96 727.041 1080.67 763.095C1087.16 769.933 1093.27 777.126 1098.96 784.642C1117.08 754.038 1142.96 728.765 1173.99 711.383C1162.57 691.344 1149.4 672.357 1134.63 654.643Z" fill="#D9543D"/>
<path opacity="0.5" d="M1134.63 654.643C1086.75 655.745 1039.44 721.678 1039.44 721.678C1039.44 721.678 1045.96 727.041 1080.67 763.095C1087.16 769.933 1093.27 777.126 1098.96 784.642C1117.08 754.038 1142.96 728.765 1173.99 711.383C1162.57 691.344 1149.4 672.357 1134.63 654.643Z" fill="white"/>
</g>
<path d="M1134.63 654.643C1134.63 654.643 1191.33 719.667 1205.45 790.149C1219.58 860.631 1215.98 908.848 1196.35 928.719C1176.72 948.589 1154.74 943.61 1141.24 928.144C1127.74 912.678 1141.24 852.778 1141.24 852.778C1141.24 852.778 1115.58 799.007 1080.91 762.904C1046.24 726.801 1039.68 721.486 1039.68 721.486C1039.68 721.486 1086.85 655.745 1134.63 654.643Z" stroke="#D9543D" stroke-width="1.1133" stroke-linecap="round" stroke-linejoin="round"/>
<path d="M1196.35 928.719C1200.64 912.619 1201.85 895.852 1199.9 879.305" stroke="#D9543D" stroke-width="1.1133" stroke-linecap="round" stroke-linejoin="round"/>
<path d="M1165.04 938.965C1165.04 938.965 1174.95 917.658 1172.75 883.135" stroke="#D9543D" stroke-width="1.1133" stroke-linecap="round" stroke-linejoin="round"/>
<path d="M1131.71 783.014C1130.51 770.517 1151.92 743.799 1184 729.961C1189.55 741.121 1194.35 752.638 1198.36 764.436C1185.74 767.957 1173.65 773.193 1162.45 779.998C1145.69 791.25 1133.15 797.092 1131.71 783.014Z" fill="#D9543D" stroke="#D9543D" stroke-width="1.1133" stroke-linecap="round" stroke-linejoin="round"/>
<path d="M1137.94 658.618C1146.74 669.484 1154.96 680.816 1162.55 692.566C1152.75 696.195 1143.48 701.14 1135.02 707.266C1100.4 732.26 1093.5 735.324 1102.31 703.339C1107.82 683.373 1123.52 668.481 1137.94 658.618Z" fill="#D9543D" stroke="#D9543D" stroke-width="1.1133" stroke-linecap="round" stroke-linejoin="round"/>
<path d="M738.028 628.548C738.028 628.548 723.281 678.297 728.835 698.551C734.389 718.805 760.15 700.418 785.958 722.492C811.766 744.565 835.659 784.403 933.386 791.777C1031.11 799.15 1090.1 746.433 1110.55 716.937C1130.99 687.442 1128.98 652.441 1163.98 650.621C1198.99 648.802 1169.54 580.57 1158.48 569.51C1158.48 569.51 1226.66 468.144 1226.66 442.336C1226.66 416.527 1162.16 422.034 1083.02 446.022C1083.02 446.022 1024.03 414.66 917.106 433.094C810.186 451.529 778.871 482.891 778.871 482.891C778.871 482.891 646.143 499.459 636.95 516.026C627.757 532.593 655.097 602.74 738.028 628.548Z" fill="white"/>
<mask id="mask5_437_386" style="mask-type:luminance" maskUnits="userSpaceOnUse" x="635" y="425" width="592" height="368">
<path d="M738.028 628.548C738.028 628.548 723.281 678.297 728.835 698.551C734.389 718.805 760.15 700.418 785.958 722.492C811.766 744.565 835.659 784.403 933.386 791.777C1031.11 799.15 1090.1 746.433 1110.55 716.937C1130.99 687.442 1128.98 652.441 1163.98 650.621C1198.99 648.802 1169.54 580.57 1158.48 569.51C1158.48 569.51 1226.66 468.144 1226.66 442.336C1226.66 416.527 1162.16 422.034 1083.02 446.022C1083.02 446.022 1024.03 414.66 917.106 433.094C810.186 451.529 778.871 482.891 778.871 482.891C778.871 482.891 646.143 499.459 636.95 516.026C627.757 532.593 655.097 602.74 738.028 628.548Z" fill="white"/>
</mask>
<g mask="url(#mask5_437_386)">
<path d="M1163.84 650.669C1198.89 648.802 1169.4 580.618 1158.33 569.557C1158.33 569.557 1171.31 550.405 1185.91 526.464C1146.32 505.779 1107.44 494.287 1097.09 505.923C1074.83 530.917 1086.94 578.799 1097.09 625.627C1107.24 672.455 1066.69 692.422 1038.34 732.93C1010 773.438 969.537 728.86 969.537 728.86C955.172 787.611 894.602 749.114 894.602 749.114C848.061 734.749 769.104 688.4 785.288 655.984C801.472 623.568 805.542 593.211 777.196 566.924C748.85 540.637 635.801 518.755 635.801 518.755C629.863 538.721 658.545 604.128 738.076 628.883C738.076 628.883 723.329 678.632 728.883 698.886C734.437 719.14 760.197 700.753 786.006 722.827C811.814 744.9 835.707 784.738 933.434 792.112C1031.16 799.486 1090.15 746.768 1110.6 717.273C1131.04 687.777 1128.79 652.489 1163.84 650.669Z" fill="#D9543D"/>
<path opacity="0.5" d="M1163.84 650.669C1198.89 648.802 1169.4 580.618 1158.33 569.557C1158.33 569.557 1171.31 550.405 1185.91 526.464C1146.32 505.779 1107.44 494.287 1097.09 505.923C1074.83 530.917 1086.94 578.799 1097.09 625.627C1107.24 672.455 1066.69 692.422 1038.34 732.93C1010 773.438 969.537 728.86 969.537 728.86C955.172 787.611 894.602 749.114 894.602 749.114C848.061 734.749 769.104 688.4 785.288 655.984C801.472 623.568 805.542 593.211 777.196 566.924C748.85 540.637 635.801 518.755 635.801 518.755C629.863 538.721 658.545 604.128 738.076 628.883C738.076 628.883 723.329 678.632 728.883 698.886C734.437 719.14 760.197 700.753 786.006 722.827C811.814 744.9 835.707 784.738 933.434 792.112C1031.16 799.486 1090.15 746.768 1110.6 717.273C1131.04 687.777 1128.79 652.489 1163.84 650.669Z" fill="white"/>
<path d="M1019.67 661.778C1021.06 673.461 995.106 686.054 961.828 689.932C928.55 693.811 900.395 687.49 899.007 675.568C897.618 663.645 923.57 651.339 956.896 647.461C990.222 643.583 1018.33 650.142 1019.67 661.778Z" fill="#D9543D"/>
<path opacity="0.5" d="M1019.67 661.778C1021.06 673.461 995.106 686.054 961.828 689.932C928.55 693.811 900.395 687.49 899.007 675.568C897.618 663.645 923.57 651.339 956.896 647.461C990.222 643.583 1018.33 650.142 1019.67 661.778Z" fill="white"/>
</g>
<path d="M738.028 628.548C738.028 628.548 723.281 678.297 728.835 698.551C734.389 718.805 760.15 700.418 785.958 722.492C811.766 744.565 835.659 784.403 933.386 791.777C1031.11 799.15 1090.1 746.433 1110.55 716.937C1130.99 687.442 1128.98 652.441 1163.98 650.621C1198.99 648.802 1169.54 580.57 1158.48 569.51C1158.48 569.51 1226.66 468.144 1226.66 442.336C1226.66 416.527 1162.16 422.034 1083.02 446.022C1083.02 446.022 1024.03 414.66 917.106 433.094C810.186 451.529 778.871 482.891 778.871 482.891C778.871 482.891 646.143 499.459 636.95 516.026C627.757 532.593 655.097 602.74 738.028 628.548Z" stroke="#D9543D" stroke-width="1.1133" stroke-miterlimit="10"/>
<path d="M1119.26 481.072C1071.38 513.249 1088.28 545.425 1109.69 563.285C1122.76 574.202 1143.83 572.861 1158.24 569.797C1158.24 569.797 1226.42 468.431 1226.42 442.623C1226.47 442.384 1166.9 448.656 1119.26 481.072Z" fill="#D9543D" stroke="#D9543D" stroke-width="1.1133" stroke-miterlimit="10"/>
<path d="M635.753 518.42C629.815 538.387 658.497 603.793 738.028 628.548C738.028 628.548 798.742 622.611 778.488 573.771C759.575 528.188 663.955 516.84 635.753 518.42Z" fill="#D9543D" stroke="#D9543D" stroke-width="1.1133" stroke-miterlimit="10"/>
<path d="M916.819 433.19C910.546 434.291 904.513 435.441 898.719 436.59C908.296 484.95 924.049 565.488 938.126 565.488C952.203 565.488 962.977 477.194 967.573 427.732C950.554 428.448 933.6 430.272 916.819 433.19Z" fill="#D9543D" stroke="#D9543D" stroke-width="1.1133" stroke-miterlimit="10"/>
<path d="M861.898 551.123C876.55 542.504 874.347 477.72 872.001 442.575C856.879 446.332 841.993 450.985 827.423 456.509C832.738 489.404 846.241 560.316 861.898 551.123Z" fill="#D9543D" stroke="#D9543D" stroke-width="1.1133" stroke-miterlimit="10"/>
<path d="M1003.68 521.341C1018.66 526.608 1027.09 472.741 1031.83 431.275C1016.69 428.808 1001.39 427.511 986.056 427.396C985.577 461.44 987.444 515.643 1003.68 521.341Z" fill="#D9543D" stroke="#D9543D" stroke-width="1.1133" stroke-miterlimit="10"/>
<path d="M983.614 707.792C969.631 704.116 954.77 705.95 942.1 712.915C941.545 713.236 941.072 713.683 940.72 714.219C940.367 714.755 940.145 715.366 940.071 716.003C939.996 716.64 940.072 717.286 940.291 717.889C940.511 718.492 940.868 719.035 941.334 719.475L966.759 743.416C967.236 743.863 967.812 744.189 968.44 744.369C969.068 744.549 969.73 744.577 970.371 744.451C971.012 744.324 971.613 744.047 972.126 743.643C972.639 743.238 973.048 742.717 973.319 742.123L986.343 713.394C986.576 712.851 986.689 712.263 986.675 711.672C986.66 711.081 986.519 710.5 986.26 709.969C986.001 709.437 985.631 708.968 985.174 708.592C984.717 708.216 984.185 707.944 983.614 707.792Z" fill="#D9543D" stroke="#D9543D" stroke-width="1.1133" stroke-linecap="round" stroke-linejoin="round"/>
<path d="M923.187 667.811C926.682 677.052 925.294 686.15 920.075 688.113C914.856 690.076 907.769 684.234 904.226 675.041C900.683 665.848 902.119 656.702 907.338 654.739C912.557 652.776 919.644 658.618 923.187 667.811Z" fill="#263238"/>
<path d="M992.52 661.251C990.7 670.828 993.669 679.686 999.175 680.691C1004.68 681.697 1010.62 674.706 1012.44 664.986C1014.26 655.266 1011.29 646.599 1005.78 645.546C1000.28 644.493 994.339 651.579 992.52 661.251Z" fill="#263238"/>
<path d="M973.319 742.075C973.319 742.075 939.323 788.233 908.343 741.788" stroke="#D9543D" stroke-width="1.1133" stroke-linecap="round" stroke-linejoin="round"/>
<path d="M966.759 743.368C966.759 743.368 989.359 766.782 1013.2 753.663C1037.05 740.543 1022.78 720.146 1022.78 720.146" stroke="#D9543D" stroke-width="1.1133" stroke-linecap="round" stroke-linejoin="round"/>
<path d="M863.095 630.942C863.095 630.942 871.427 601.159 910.738 608.294" stroke="#D9543D" stroke-width="3.33991" stroke-linecap="round" stroke-linejoin="round"/>
<path d="M982.225 603.554C982.225 603.554 1012.01 585.694 1039.4 614.279" stroke="#D9543D" stroke-width="3.33991" stroke-linecap="round" stroke-linejoin="round"/>
<path d="M840.447 710.809L869.033 717.943" stroke="#D9543D" stroke-width="1.1133" stroke-miterlimit="10" stroke-linecap="round"/>
<path d="M865.441 728.669L840.447 733.409" stroke="#D9543D" stroke-width="1.1133" stroke-miterlimit="10" stroke-linecap="round"/>
<path d="M870.23 741.788L852.37 751.317" stroke="#D9543D" stroke-width="1.1133" stroke-miterlimit="10" stroke-linecap="round"/>
<path d="M1051.32 697.689L1076.36 691.704" stroke="#D9543D" stroke-width="1.1133" stroke-miterlimit="10" stroke-linecap="round"/>
<path d="M1056.11 709.612H1072.77" stroke="#D9543D" stroke-width="1.1133" stroke-miterlimit="10" stroke-linecap="round"/>
<path d="M1059.65 721.534L1082.3 727.472" stroke="#D9543D" stroke-width="1.1133" stroke-miterlimit="10" stroke-linecap="round"/>
</svg>
